<?xml version="1.0" standalone="no"?>
<!DOCTYPE svg PUBLIC "-//W3C//DTD SVG 20010904//EN"
 "http://www.w3.org/TR/2001/REC-SVG-20010904/DTD/svg10.dtd">
<svg version="1.0" xmlns="http://www.w3.org/2000/svg"
 width="800.000000pt" height="800.000000pt" viewBox="0 0 800.000000 800.000000"
 preserveAspectRatio="xMidYMid meet">

<g transform="translate(0.000000,800.000000) scale(0.100000,-0.100000)"
fill="#000000" stroke="none">
<path d="M4334 7970 c7 -35 3 -36 -34 -10 l-27 19 -12 -25 c-6 -14 -11 -35
-11 -48 0 -32 -28 -38 -115 -24 -38 5 -92 11 -120 12 -27 0 -56 7 -63 14 -7 6
-24 12 -37 12 -13 0 -27 5 -30 10 -11 17 -25 11 -35 -16 -6 -16 -14 -22 -22
-18 -9 6 -9 9 0 12 7 2 12 8 12 13 0 16 -18 10 -39 -13 -17 -18 -23 -19 -37
-7 -9 7 -23 14 -31 15 -8 2 -26 12 -38 24 -13 12 -38 23 -57 25 -18 1 -26 0
-16 -2 22 -5 32 -34 16 -45 -7 -4 -33 -8 -58 -7 -70 2 -152 -9 -163 -20 -6 -6
-25 -11 -42 -12 -16 0 -24 -3 -17 -6 6 -2 12 -9 12 -14 0 -6 -4 -8 -9 -5 -5 4
-11 2 -13 -3 -1 -5 -16 -13 -32 -17 -27 -6 -29 -5 -24 20 7 33 -13 35 -44 3
-17 -17 -22 -33 -21 -60 2 -43 4 -42 -33 -22 -22 11 -30 12 -36 2 -4 -7 -1
-17 7 -23 14 -10 14 -13 0 -24 -15 -12 -53 -10 -87 5 -13 5 -18 3 -18 -10 0
-13 -7 -16 -30 -13 -16 3 -30 1 -30 -4 0 -4 -8 -8 -17 -8 -27 -1 -63 -35 -63
-60 0 -12 -4 -18 -10 -15 -14 9 -52 -4 -45 -16 4 -5 -1 -12 -9 -15 -9 -3 -16
-14 -16 -23 0 -19 -103 -68 -108 -52 -2 6 -8 11 -14 11 -5 0 -8 -6 -6 -12 9
-26 -19 -40 -60 -29 -30 9 -51 7 -91 -5 -28 -8 -56 -12 -61 -9 -6 4 -13 0 -16
-8 -3 -9 -17 -18 -32 -22 -14 -3 -38 -15 -54 -26 -15 -11 -32 -18 -37 -15 -11
7 -20 -28 -31 -113 -6 -48 -14 -69 -32 -85 -37 -34 -78 -57 -88 -51 -5 3 -7 0
-5 -8 6 -14 -48 -96 -72 -110 -7 -4 -13 -14 -13 -22 0 -7 -9 -17 -20 -20 -11
-4 -17 -11 -14 -17 4 -5 1 -20 -6 -33 -10 -18 -24 -24 -73 -29 -95 -11 -138
-12 -144 -3 -2 4 6 7 19 8 13 0 17 3 11 6 -7 2 -13 15 -13 28 0 32 -16 40 -30
15 -6 -11 -18 -20 -26 -20 -8 0 -12 -4 -9 -10 3 -5 1 -10 -4 -10 -7 0 -11 -23
-11 -55 l0 -55 -41 0 c-24 0 -38 -4 -34 -10 7 -11 -8 -14 -19 -3 -3 4 -14 8
-24 9 -33 5 -52 10 -58 17 -11 10 -34 8 -34 -3 0 -5 14 -16 30 -25 17 -9 30
-22 30 -30 0 -12 -20 -15 -111 -15 -64 0 -108 -4 -105 -9 4 -5 0 -11 -6 -14
-7 -2 20 -4 61 -3 58 1 76 -2 84 -15 8 -14 5 -22 -19 -43 -16 -14 -34 -26 -40
-26 -6 0 -21 -11 -34 -25 -13 -14 -28 -25 -34 -25 -5 0 -35 -27 -67 -61 -48
-52 -59 -70 -69 -118 -18 -86 -22 -175 -10 -206 13 -35 22 -29 12 9 -12 45 4
169 27 215 25 48 80 112 124 143 24 17 31 18 38 7 6 -11 14 -8 36 12 40 38 67
41 94 13 12 -13 19 -27 16 -31 -4 -3 -7 -2 -7 4 0 6 -8 14 -17 17 -15 6 -15 4
2 -14 10 -11 24 -20 31 -20 18 0 45 -60 38 -83 -6 -20 -7 -19 -20 4 l-13 24
-1 -31 c0 -35 -23 -87 -33 -77 -4 3 -7 -4 -7 -16 0 -12 4 -20 8 -17 5 3 14
-23 20 -56 8 -45 8 -64 1 -69 -8 -4 -7 -8 2 -12 12 -4 11 -7 -1 -16 -13 -10
-13 -11 0 -11 8 -1 4 -6 -9 -11 -26 -10 -61 -4 -61 12 0 5 -4 9 -10 9 -5 0
-10 -6 -10 -13 0 -14 -40 -37 -65 -37 -7 0 -16 9 -20 19 -3 11 -13 22 -21 25
-11 4 -10 -1 5 -20 29 -36 26 -53 -9 -65 -16 -6 -30 -15 -30 -19 0 -4 -15 -30
-33 -57 -25 -37 -32 -55 -26 -70 15 -42 36 -37 43 10 3 24 34 64 66 87 25 18
30 19 30 5 0 -9 -4 -13 -10 -10 -5 3 -10 -2 -10 -13 0 -10 -9 -27 -20 -37 -29
-26 -25 -61 8 -80 15 -9 35 -27 44 -40 15 -20 16 -25 3 -35 -11 -9 -15 -10
-15 -1 0 7 -3 10 -8 7 -4 -2 -9 -37 -10 -76 -3 -66 10 -128 31 -158 5 -7 19
-30 31 -51 11 -21 34 -53 49 -71 27 -31 31 -33 125 -39 l97 -6 3 -34 c2 -19
10 -44 18 -55 8 -11 14 -34 14 -51 0 -17 7 -41 17 -54 13 -20 16 -58 19 -232
l2 -209 -34 0 c-28 0 -35 -4 -40 -25 -10 -42 15 -244 34 -273 9 -14 16 -27 15
-29 -2 -2 -3 -22 -3 -45 0 -47 10 -43 25 10 17 60 35 52 35 -17 0 -34 -3 -61
-7 -61 -5 0 -6 -24 -4 -52 2 -41 9 -59 30 -80 14 -15 30 -28 35 -28 5 0 6 24
3 53 -3 29 -1 75 5 103 5 27 9 73 9 102 -1 28 3 52 7 52 5 0 9 29 9 64 1 36 4
69 7 75 9 14 27 322 26 429 0 50 3 82 10 82 5 0 10 -9 10 -20 0 -11 5 -20 11
-20 5 0 7 5 4 10 -3 6 -2 10 3 10 15 0 24 -33 12 -40 -8 -5 -6 -9 4 -13 13 -5
16 -22 16 -80 0 -60 5 -83 25 -121 l24 -46 -22 0 -22 -1 24 -19 c12 -11 27
-17 33 -14 5 3 19 -3 31 -13 34 -31 57 -36 57 -13 0 26 21 37 32 16 5 -9 13
-14 19 -11 5 4 9 1 9 -5 0 -17 40 -2 83 32 41 32 100 44 138 29 14 -6 18 -10
9 -11 -10 -1 -7 -4 7 -10 12 -5 24 -21 28 -39 8 -36 11 -38 56 -46 39 -7 107
-24 129 -33 27 -11 188 -15 280 -8 36 3 72 6 81 7 9 0 27 11 40 25 12 13 28
24 36 24 7 0 13 5 13 10 0 6 7 10 16 10 9 0 12 -5 8 -12 -4 -7 1 -6 12 3 10 9
24 14 31 12 7 -2 28 3 47 12 27 13 39 14 56 5 25 -13 50 1 50 29 0 22 73 94
85 84 4 -5 5 0 2 10 -4 9 -2 17 3 17 6 0 10 7 10 15 0 8 6 12 13 9 8 -3 20 2
27 11 10 12 10 15 0 15 -8 0 -10 3 -7 7 4 3 2 12 -4 19 -7 8 -4 21 9 43 10 17
21 29 23 26 3 -2 4 8 4 23 -4 56 13 174 25 182 6 4 10 16 8 26 -4 22 27 50 62
56 14 2 24 9 22 16 -3 16 35 16 40 0 4 -10 10 -10 32 0 36 16 56 15 56 -3 0
-18 12 -19 27 -4 9 9 14 5 19 -15 7 -29 24 -35 24 -8 1 15 2 15 15 -2 8 -11
18 -17 21 -13 7 7 63 -46 65 -60 1 -5 3 -21 5 -38 2 -16 7 -82 10 -145 5 -90
11 -125 29 -159 20 -41 22 -42 39 -26 9 10 15 24 12 31 -3 8 -1 14 4 14 6 0
10 -5 10 -10 0 -6 11 -16 25 -22 14 -6 25 -18 25 -27 0 -14 2 -14 10 -1 7 12
10 8 10 -15 0 -23 8 -36 33 -53 18 -12 41 -22 50 -22 9 0 34 -18 57 -41 22
-23 46 -39 53 -36 7 3 38 -1 68 -7 48 -11 55 -16 60 -42 5 -24 7 -26 13 -11 6
12 20 17 46 17 25 0 40 5 44 16 5 13 8 14 20 1 11 -10 27 -12 60 -7 31 5 46 3
46 -4 0 -21 395 0 409 22 3 6 17 12 30 13 20 3 29 15 45 62 19 53 36 74 36 45
0 -9 4 -8 10 2 8 13 10 13 10 -2 0 -20 29 -38 59 -38 11 0 27 -10 36 -22 8
-13 20 -24 25 -24 6 -1 15 -2 20 -3 6 0 10 -9 10 -19 0 -10 8 -29 17 -42 10
-14 18 -32 18 -40 0 -8 11 -20 24 -26 28 -14 50 -49 51 -81 0 -33 11 -53 27
-53 8 0 13 -8 12 -17 -3 -36 1 -53 15 -53 25 0 28 -127 6 -253 -11 -58 -16
-68 -36 -73 -21 -5 -29 -20 -26 -45 1 -4 -10 -10 -23 -13 -14 -4 -25 -11 -25
-16 0 -5 -5 -21 -12 -37 -6 -15 -12 -32 -12 -38 -1 -5 -16 -13 -33 -19 -25 -7
-33 -14 -33 -33 0 -15 -9 -27 -24 -35 -14 -6 -26 -20 -28 -32 -2 -13 -10 -20
-21 -20 -10 1 -19 -7 -23 -21 -3 -13 -12 -26 -19 -29 -9 -3 -12 -18 -11 -40 2
-20 0 -33 -4 -31 -11 7 -100 -25 -100 -36 0 -5 5 -9 10 -9 14 0 12 -26 -3 -38
-8 -7 -18 -6 -31 4 -22 16 -74 18 -95 5 -8 -6 -12 -18 -8 -31 6 -24 -6 -42
-35 -53 -20 -7 -26 -71 -8 -82 17 -10 12 -45 -5 -39 -8 4 -15 1 -15 -5 0 -21
-53 -2 -77 26 -51 62 -99 103 -119 103 -12 0 -27 7 -34 15 -8 10 -18 12 -29 6
-9 -5 -22 -6 -29 -4 -8 3 -10 -1 -5 -12 5 -15 3 -16 -16 -5 -13 6 -20 18 -17
25 7 19 -40 55 -70 55 -13 0 -24 4 -24 8 0 10 -6 11 -87 17 -58 4 -61 3 -67
-20 -3 -13 -3 -31 0 -39 3 -9 2 -16 -4 -16 -5 0 -12 8 -14 18 -6 23 -5 38 5
35 4 -2 7 2 7 8 0 15 -42 59 -56 59 -24 0 -24 31 1 42 24 11 42 38 25 38 -25
0 -2 59 37 95 31 28 45 172 19 198 -18 18 -36 22 -36 9 0 -10 -138 3 -173 17
-67 26 -235 5 -263 -34 -14 -19 -85 -37 -142 -36 -18 1 -47 -6 -64 -15 -36
-19 -149 -15 -156 4 -2 7 -17 12 -32 12 -16 0 -32 5 -35 10 -4 6 -10 8 -15 5
-5 -3 -11 -1 -15 5 -22 35 -159 58 -175 29 -5 -8 -28 -24 -52 -34 -24 -10 -51
-25 -60 -33 -12 -10 -18 -11 -18 -4 0 7 -5 12 -10 12 -12 0 -4 -130 11 -190
11 -47 91 -123 152 -145 27 -10 47 -24 47 -33 0 -25 -41 -53 -74 -50 -19 2
-30 -1 -29 -8 1 -7 -3 -11 -10 -11 -32 1 -48 -4 -42 -13 4 -6 -7 -24 -24 -40
-29 -30 -42 -37 -40 -22 3 20 -2 32 -15 32 -18 0 -67 -26 -75 -39 -9 -14 -51
-2 -51 16 0 11 -4 11 -20 3 -11 -6 -20 -17 -20 -25 0 -18 -16 -28 -49 -29 -21
-1 -25 -5 -23 -24 4 -28 -21 -39 -54 -23 -26 12 -27 11 -38 -40 -3 -14 -26
-46 -51 -71 -30 -30 -45 -54 -45 -71 0 -31 -9 -57 -21 -57 -5 0 -4 11 1 24 12
32 7 35 -40 26 -22 -4 -40 -3 -40 1 0 5 -4 9 -10 9 -5 0 -10 -10 -10 -21 0
-18 -5 -21 -30 -17 -24 4 -30 1 -30 -14 0 -11 -7 -18 -19 -18 -11 0 -23 -4
-26 -10 -12 -19 -35 -10 -35 14 0 18 -8 27 -32 35 -21 8 -35 8 -42 1 -11 -11
-46 15 -46 34 -1 15 -42 61 -63 69 -9 3 -17 13 -17 22 0 11 11 15 38 15 33 0
39 4 49 31 9 24 16 29 32 24 14 -4 23 0 30 14 16 29 14 31 -24 26 -22 -3 -35
-1 -35 6 0 6 -7 8 -15 5 -9 -3 -18 1 -21 8 -3 8 -14 12 -25 9 -21 -6 -39 25
-21 36 6 4 13 18 14 31 3 20 -3 27 -36 37 -34 12 -41 11 -57 -3 -22 -19 -25
-60 -6 -68 8 -3 5 -11 -10 -24 -23 -20 -31 -52 -14 -52 9 0 9 -13 -2 -40 -3
-8 -10 -28 -16 -45 -7 -18 -9 -21 -7 -7 4 19 2 21 -10 11 -11 -9 -14 -8 -14 9
0 12 -5 24 -11 28 -8 4 -9 0 -4 -15 7 -22 -9 -30 -19 -8 -4 6 -4 1 0 -13 3
-14 8 -46 11 -72 3 -27 9 -48 13 -48 5 0 6 -9 3 -20 -7 -28 14 -102 49 -172
19 -40 28 -73 28 -108 0 -52 14 -126 34 -174 10 -23 9 -43 -3 -97 -15 -65 -18
-70 -51 -80 -69 -21 -140 -51 -140 -60 0 -5 -8 -9 -18 -9 -10 0 -40 -14 -66
-30 -119 -76 -176 -97 -271 -102 -92 -5 -170 -30 -207 -66 -23 -23 -46 -42
-51 -42 -2 0 -17 11 -33 25 -51 44 -92 49 -181 21 -45 -15 -137 -31 -218 -40
-182 -20 -258 -41 -378 -102 -16 -8 -34 -14 -41 -14 -7 0 -39 -10 -72 -21 -46
-17 -84 -22 -175 -23 -150 -2 -172 -14 -228 -132 -32 -67 -45 -83 -70 -92
l-31 -11 0 -945 0 -946 1490 0 c820 0 1490 1 1490 3 0 2 -10 23 -21 47 -12 24
-22 49 -24 54 -1 6 -5 18 -8 26 -3 8 -8 26 -10 40 -3 14 -20 63 -37 110 -18
47 -34 99 -37 115 -3 17 -9 35 -13 40 -16 22 -71 198 -67 213 3 12 5 10 6 -6
0 -13 5 -21 11 -17 5 3 7 20 5 38 -18 162 -18 165 11 243 23 64 25 80 16 109
-6 21 -6 37 -1 41 5 3 5 13 -1 24 -5 10 -10 30 -10 44 0 15 -6 26 -14 26 -8 0
-19 20 -26 48 -7 26 -21 55 -32 64 -20 18 -33 59 -43 139 -3 24 -15 69 -26 99
-12 30 -30 77 -40 104 -11 27 -19 61 -19 77 0 16 -9 50 -19 78 -11 27 -18 51
-15 54 3 3 1 13 -5 24 -5 10 -13 32 -17 48 -8 33 -8 34 -17 55 -3 8 -8 26 -11
40 -2 14 -11 54 -19 90 -34 154 -40 211 -34 302 4 51 12 111 19 133 l12 40 7
-40 c5 -22 13 -94 19 -159 9 -102 16 -130 46 -193 18 -40 34 -79 34 -87 0 -7
9 -21 19 -30 11 -10 23 -31 26 -46 3 -16 13 -34 21 -41 8 -6 14 -18 14 -25 0
-17 58 -121 71 -130 5 -3 9 -12 9 -21 0 -8 15 -36 34 -62 18 -25 46 -70 60
-99 15 -29 33 -55 41 -59 8 -3 15 -13 15 -23 0 -10 7 -20 15 -24 8 -3 15 -11
15 -18 0 -9 -3 -8 -10 2 -5 8 -10 11 -10 5 0 -18 17 -38 27 -32 5 3 10 1 10
-6 0 -21 35 -87 43 -82 4 3 11 -2 14 -11 3 -8 2 -12 -4 -9 -19 12 -10 -22 11
-41 22 -19 22 -19 10 4 -19 36 -5 25 20 -15 13 -20 22 -45 22 -55 -1 -10 1
-18 5 -18 12 0 42 -56 35 -64 -3 -3 -1 -6 5 -6 7 0 20 -17 29 -37 10 -21 31
-56 48 -78 16 -22 34 -46 40 -54 10 -14 135 -138 170 -169 66 -58 58 -57 110
-18 26 20 53 36 62 36 8 0 49 18 90 40 42 22 81 40 87 40 6 0 31 18 56 40 25
22 48 40 52 40 15 0 227 173 353 288 23 20 78 71 123 112 108 98 220 214 307
316 22 26 57 63 78 83 20 20 37 40 37 44 0 7 36 46 121 132 21 22 39 43 39 47
0 4 12 20 28 36 15 16 38 44 52 61 14 18 37 47 53 65 15 19 27 39 27 46 0 7
10 27 23 44 30 41 51 94 72 186 30 128 41 123 55 -21 10 -103 -2 -244 -29
-336 -5 -17 -7 -34 -4 -36 2 -3 -2 -16 -10 -29 -8 -12 -20 -48 -27 -78 -7 -30
-28 -85 -46 -122 -19 -37 -34 -73 -34 -80 0 -7 -15 -43 -34 -79 -18 -36 -37
-76 -41 -90 -4 -13 -22 -56 -40 -94 -18 -39 -37 -84 -41 -100 -4 -17 -16 -43
-26 -60 -10 -16 -18 -36 -18 -44 0 -8 -7 -22 -16 -32 -13 -14 -33 -73 -49
-143 -2 -10 -14 -37 -25 -59 -12 -21 -23 -57 -25 -78 -5 -52 -14 -79 -27 -79
-5 0 -7 -7 -4 -16 3 -8 0 -25 -8 -37 -8 -12 -17 -46 -21 -74 -4 -29 -11 -55
-15 -58 -5 -3 -12 -40 -15 -83 -4 -42 -16 -99 -25 -127 -10 -27 -21 -80 -25
-117 -4 -37 -11 -70 -16 -73 -5 -4 -9 -23 -9 -43 0 -20 -9 -61 -20 -90 -11
-30 -16 -51 -10 -47 5 3 10 1 10 -4 0 -6 -5 -11 -11 -11 -10 0 -32 -45 -43
-92 l-6 -28 1740 0 1740 0 0 459 c0 409 -2 461 -16 476 -19 18 -108 65 -125
65 -6 0 -31 18 -56 40 -25 22 -54 40 -64 40 -9 0 -19 3 -21 8 -6 15 -89 74
-126 89 -20 9 -79 29 -131 45 -88 28 -190 71 -291 123 -57 30 -108 39 -140 26
-14 -5 -47 -30 -75 -55 -69 -64 -85 -62 -85 12 0 31 -7 77 -16 102 -13 38 -24
49 -63 68 -26 12 -54 22 -63 22 -8 0 -31 7 -51 15 -19 8 -55 19 -80 24 -65 15
-228 95 -278 137 -23 19 -59 44 -79 54 -20 10 -42 26 -49 34 -8 9 -22 16 -32
16 -10 0 -26 8 -36 18 -23 23 -90 62 -107 62 -7 0 -34 18 -59 40 -25 22 -50
40 -56 40 -7 0 -14 7 -17 15 -3 8 -27 28 -53 44 -26 17 -70 55 -98 85 -28 29
-59 58 -69 64 -18 10 -18 11 -1 29 13 16 17 38 17 109 -1 49 -5 109 -11 134
-5 25 -15 86 -20 135 -7 51 -20 107 -32 130 -27 54 -84 123 -108 130 -25 8
-24 17 12 137 17 57 35 123 39 148 5 25 18 79 28 120 11 41 25 115 32 163 12
90 27 117 60 117 30 0 113 43 135 69 42 52 57 121 25 121 -13 0 -22 9 -26 28
-3 15 -8 34 -10 44 -6 21 12 33 20 13 3 -8 14 -15 25 -15 18 0 20 -5 14 -32
-3 -18 -3 -30 2 -26 7 6 31 133 60 310 8 48 19 96 24 107 6 11 11 28 11 38 0
10 13 46 29 80 26 54 30 76 35 190 4 70 9 163 12 206 l5 78 -44 43 c-49 49
-89 62 -141 47 -33 -9 -36 -8 -36 12 0 29 15 51 29 43 7 -5 11 2 11 16 0 13 4
28 10 34 5 5 10 24 12 42 1 17 5 32 9 32 3 0 4 11 2 24 -4 20 0 24 27 28 28 4
35 1 49 -23 9 -16 20 -29 24 -29 5 0 5 5 2 10 -3 6 -2 10 4 10 5 0 12 -6 14
-12 6 -15 10 14 7 54 -1 25 0 26 34 18 22 -5 34 -4 30 1 -3 6 4 7 18 4 17 -4
29 0 42 14 21 23 6 29 -17 7 -23 -23 -81 10 -85 47 -3 25 -1 27 15 19 10 -6
36 -10 58 -10 22 0 34 3 28 5 -23 8 -13 20 12 15 25 -4 35 -22 13 -22 -9 0 -9
-3 0 -12 14 -14 18 -11 27 25 6 24 4 29 -14 34 -14 4 -20 11 -16 20 3 11 1 13
-10 10 -8 -4 -17 -2 -20 4 -4 5 -11 7 -16 4 -5 -4 -9 -1 -9 5 0 6 -4 8 -10 5
-5 -3 -10 3 -10 14 0 12 6 21 14 21 8 0 21 6 29 14 7 8 25 16 38 18 20 2 25
10 27 41 2 24 8 37 17 37 20 0 81 64 105 109 17 34 19 55 16 154 -2 63 -9 123
-14 134 -7 12 -8 33 -2 59 8 35 6 43 -20 80 -21 29 -29 53 -30 85 -1 75 2 125
7 112 8 -22 21 -14 15 9 -3 13 -1 19 5 15 7 -5 9 0 6 13 -3 11 -9 23 -14 26
-5 3 -9 12 -9 20 0 10 7 13 28 8 l27 -6 -25 14 c-14 7 -26 22 -28 33 -2 11
-10 34 -18 52 -16 36 -17 43 -5 43 5 0 12 -12 14 -27 2 -16 5 2 6 39 0 37 -3
70 -9 73 -6 3 -10 -4 -10 -17 0 -22 -1 -21 -20 7 -24 37 -26 28 -3 -20 18 -37
9 -63 -10 -30 -18 30 -25 56 -26 94 -1 20 -9 40 -20 50 -11 10 -20 33 -22 56
-3 42 -53 136 -94 181 -14 15 -25 34 -25 42 0 22 68 -44 86 -83 18 -38 42 -70
49 -63 8 7 -66 117 -99 147 -15 15 -22 27 -16 31 6 4 -2 13 -17 20 -29 15 -83
66 -83 79 0 24 -160 161 -188 161 -4 0 -19 11 -34 25 -15 14 -39 25 -53 25
-16 0 -39 14 -65 40 -22 22 -42 40 -44 40 -12 0 -85 79 -77 84 8 6 20 0 110
-50 45 -24 63 -25 43 -2 -10 12 -46 31 -137 74 -22 10 -51 31 -65 47 -14 16
-37 30 -50 31 -15 1 -24 7 -22 15 5 24 -9 51 -28 51 -10 0 -25 12 -35 26 -16
25 -16 26 4 19 37 -12 22 3 -36 35 -144 80 -130 75 -228 70 -92 -6 -135 3
-135 27 0 7 5 13 10 13 6 0 10 4 10 9 0 5 -9 7 -20 4 -11 -3 -20 0 -20 6 0 6
-12 17 -27 25 -27 14 -58 39 -113 90 -32 29 -70 50 -70 37 0 -23 14 -41 31
-41 10 0 19 -4 19 -10 0 -5 -1 -10 -2 -10 -75 14 -140 50 -89 50 11 0 23 5 26
10 3 6 -4 10 -16 10 -12 0 -31 8 -42 18 -19 16 -20 16 -8 -5 13 -25 9 -28 -20
-13 -25 14 -24 36 1 43 11 3 20 9 18 14 -1 4 6 22 15 40 26 48 22 53 -38 53
l-54 0 -11 -40 c-6 -24 -17 -40 -25 -40 -18 0 -18 5 -5 30 7 13 6 19 -6 24 -8
3 -12 10 -9 16 4 6 -22 10 -71 10 l-76 0 6 -30z m122 -12 c-7 -36 -17 -58 -28
-58 -5 0 -8 3 -6 8 3 4 10 22 17 40 15 37 23 42 17 10z m-776 -19 c0 -14 -17
-10 -23 5 -4 10 -1 13 9 9 7 -3 14 -9 14 -14z m660 -39 c0 -13 -7 -20 -20 -20
-22 0 -23 1 -14 24 9 23 34 20 34 -4z m850 -310 c13 -8 13 -10 -2 -10 -9 0
-20 5 -23 10 -8 13 5 13 25 0z m40 -90 c8 -5 11 -10 5 -10 -5 0 -17 5 -25 10
-8 5 -10 10 -5 10 6 0 17 -5 25 -10z m-2570 -35 c-18 -21 -47 -28 -70 -15 -31
17 -14 30 37 30 39 0 44 -2 33 -15z m2628 -53 c2 -7 -3 -12 -12 -12 -9 0 -16
7 -16 16 0 17 22 14 28 -4z m36 2 c3 -8 2 -12 -4 -9 -6 3 -10 10 -10 16 0 14
7 11 14 -7z m-2855 -13 c25 -16 4 -57 -49 -95 -28 -20 -53 -36 -56 -36 -4 0
-4 19 0 42 7 45 28 75 61 89 26 10 28 10 44 0z m57 -13 c-14 -24 -26 -23 -26
1 0 13 6 19 19 18 15 -1 17 -4 7 -19z m2939 -68 c3 -6 -1 -7 -9 -4 -18 7 -21
14 -7 14 6 0 13 -4 16 -10z m365 -330 c0 -5 -4 -10 -9 -10 -6 0 -13 5 -16 10
-3 6 1 10 9 10 9 0 16 -4 16 -10z m-3885 -122 c15 -23 15 -23 -37 -30 -29 -4
-57 -3 -62 2 -13 13 2 43 17 37 8 -3 20 -1 28 4 22 14 37 11 54 -13z m35 -62
c0 -3 -4 -8 -10 -11 -5 -3 -10 -1 -10 4 0 6 5 11 10 11 6 0 10 -2 10 -4z m-60
-20 c0 -8 -5 -18 -10 -21 -17 -11 -40 3 -34 20 8 19 44 20 44 1z m-50 -46 c0
-5 -4 -10 -10 -10 -5 0 -10 5 -10 10 0 6 5 10 10 10 6 0 10 -4 10 -10z m-85
-98 c-3 -3 -11 0 -18 7 -9 10 -8 11 6 5 10 -3 15 -9 12 -12z m-68 -38 c-3 -3
-12 -4 -19 -1 -8 3 -5 6 6 6 11 1 17 -2 13 -5z m2693 -394 c0 -5 -2 -10 -4
-10 -3 0 -8 5 -11 10 -3 6 -1 10 4 10 6 0 11 -4 11 -10z m-1005 -60 c9 -16 12
-30 7 -30 -8 0 -32 42 -32 55 0 13 11 2 25 -25z m-1745 -5 c0 -8 -8 -11 -22
-8 -48 10 -53 16 -23 23 35 7 45 4 45 -15z m2410 -25 c5 0 10 -4 10 -10 0 -5
-9 -10 -20 -10 -11 0 -20 -5 -20 -11 0 -7 14 -9 40 -5 54 7 107 -25 116 -71
10 -52 4 -57 -59 -54 l-57 2 0 -40 c0 -30 3 -39 14 -35 8 3 16 -4 20 -20 13
-53 46 -23 48 43 1 21 4 26 12 19 15 -14 8 -88 -8 -88 -14 0 -36 -56 -36 -93
0 -14 -4 -29 -10 -32 -6 -4 -10 5 -10 19 0 14 -4 26 -10 26 -5 0 -10 -11 -10
-24 0 -13 -3 -31 -6 -40 -4 -11 -1 -16 10 -16 9 0 16 -4 16 -10 0 -5 -7 -10
-15 -10 -8 0 -15 -5 -15 -11 0 -7 -11 -9 -27 -6 -24 5 -28 2 -29 -19 -2 -27 3
-28 39 -15 22 9 25 7 30 -15 4 -21 2 -24 -17 -17 -35 12 -78 7 -88 -11 -14
-24 -35 -19 -46 12 l-10 27 -2 -25 c-1 -14 -4 -19 -7 -12 -2 6 -10 12 -17 12
-7 0 -24 6 -39 13 -29 13 -44 58 -33 95 8 24 -11 39 -27 23 -7 -7 -7 -17 1
-35 9 -20 7 -27 -7 -40 -10 -9 -23 -16 -30 -16 -7 0 -9 -4 -6 -10 4 -6 -11
-10 -37 -11 -24 0 -53 -2 -65 -5 -16 -3 -23 1 -23 12 0 8 -6 21 -12 29 -21 21
-42 48 -61 78 -17 27 -17 27 7 27 13 0 26 7 29 15 7 17 -9 30 -18 15 -3 -5
-13 -10 -21 -10 -11 0 -13 4 -5 17 9 18 -2 51 -21 64 -5 3 7 14 27 24 35 16
40 16 74 1 60 -27 82 -25 101 9 10 17 15 33 13 38 -2 4 6 7 19 7 41 0 69 12
60 24 -18 22 7 73 49 100 37 25 43 26 63 13 12 -8 41 -15 65 -15 36 -1 42 2
35 16 -4 9 -9 30 -12 45 -3 22 -8 26 -23 22 -22 -7 -24 -2 -7 24 12 19 13 19
35 -5 12 -13 27 -24 33 -24z m-2487 -22 c3 -10 2 -20 -3 -23 -10 -6 -15 1 -24
39 -6 24 -5 26 7 15 7 -8 16 -22 20 -31z m2208 -1 c-8 -8 -11 -7 -11 4 0 20
13 34 18 19 3 -7 -1 -17 -7 -23z m377 17 c14 -15 14 -16 -3 -13 -10 2 -20 10
-23 17 -5 17 6 15 26 -4z m-2515 -14 c-3 -11 -8 -20 -12 -20 -3 0 -12 9 -19
20 -11 18 -10 20 12 20 19 0 23 -4 19 -20z m2457 10 c0 -5 -4 -10 -10 -10 -5
0 -10 5 -10 10 0 6 5 10 10 10 6 0 10 -4 10 -10z m-2585 -10 c3 -5 1 -10 -4
-10 -6 0 -11 5 -11 10 0 6 2 10 4 10 3 0 8 -4 11 -10z m1561 -15 c12 -11 12
-19 4 -35 -13 -25 -26 -25 -40 -1 -23 44 2 70 36 36z m-1582 -62 c3 -10 9 -24
12 -32 5 -10 1 -11 -15 -6 -14 4 -21 2 -21 -6 0 -9 -3 -10 -10 -3 -7 7 -6 19
2 37 15 31 23 34 32 10z m1536 -47 c0 -13 -3 -31 -6 -40 -11 -29 -24 -16 -24
24 0 29 4 40 15 40 9 0 15 -9 15 -24z m3240 -56 c0 -10 7 -25 15 -34 8 -8 15
-25 15 -37 0 -33 -15 -13 -34 48 -10 28 -24 57 -32 63 -7 7 -14 17 -14 23 0 5
11 -2 25 -17 14 -15 25 -35 25 -46z m-3184 23 c-11 -11 -19 6 -11 24 8 17 8
17 12 0 3 -10 2 -21 -1 -24z m1216 25 c-7 -7 -12 -20 -12 -30 0 -10 -4 -18 -9
-18 -5 0 -7 -10 -4 -22 5 -23 5 -23 -10 -3 -22 27 -22 72 1 78 36 10 47 8 34
-5z m-1492 -33 c0 -14 -4 -25 -10 -25 -5 0 -10 11 -10 25 0 14 5 25 10 25 6 0
10 -11 10 -25z m1290 -25 c0 -5 -4 -10 -10 -10 -5 0 -10 5 -10 10 0 6 5 10 10
10 6 0 10 -4 10 -10z m2120 -47 c0 -8 -4 -11 -10 -8 -5 3 -10 1 -10 -5 0 -6 8
-10 17 -8 12 2 24 -9 35 -31 20 -40 16 -51 -10 -28 -10 10 -25 17 -33 17 -8 0
4 -15 25 -34 35 -29 40 -39 46 -89 3 -32 2 -57 -2 -57 -4 0 -8 -10 -8 -22 1
-22 1 -23 15 -4 14 19 15 19 15 -5 0 -14 -7 -34 -15 -45 -8 -10 -15 -26 -15
-34 0 -13 -60 -70 -73 -70 -3 0 -7 14 -9 30 -3 21 1 35 14 47 23 20 25 75 3
67 -9 -4 -15 -11 -14 -18 3 -25 -1 -56 -8 -56 -5 0 -8 29 -8 65 0 37 -4 65
-10 65 -5 0 -3 5 5 10 10 6 11 10 3 10 -7 0 -13 12 -13 26 0 14 -4 22 -10 19
-6 -3 -7 1 -4 10 4 9 13 14 20 11 16 -6 20 29 4 39 -16 10 -12 38 5 31 9 -3
15 0 15 9 0 8 -4 15 -10 15 -13 0 -13 12 0 44 10 27 40 27 40 -1z m-4677 -80
c-1 -6 5 -10 14 -9 11 1 20 -18 33 -72 16 -67 40 -117 40 -83 0 7 5 9 10 6 6
-3 10 -1 10 4 0 6 -4 11 -9 11 -16 0 -37 83 -31 120 l6 35 14 -30 c9 -16 27
-36 42 -43 15 -7 30 -23 34 -35 4 -12 11 -25 16 -28 6 -4 13 -22 17 -40 6 -27
3 -37 -14 -51 -11 -10 -15 -17 -9 -18 7 0 14 -7 18 -15 4 -10 -1 -15 -15 -15
-13 0 -18 4 -13 12 5 7 3 8 -7 2 -8 -4 -25 -7 -38 -5 -13 1 -28 -3 -33 -11 -6
-10 -18 -2 -48 32 -22 25 -40 49 -40 54 0 6 7 1 15 -10 13 -18 14 -18 8 4 -3
12 -14 29 -25 36 -23 16 -38 66 -38 124 0 39 2 43 23 40 12 -2 21 -8 20 -15z
m4591 -153 c-6 -5 -24 21 -24 34 0 6 6 1 14 -10 8 -10 12 -21 10 -24z m12
-137 c-4 -9 -1 -20 6 -24 7 -4 9 -11 5 -15 -4 -4 -15 0 -24 9 -13 13 -14 19
-3 31 16 21 24 20 16 -1z m-36 -7 c0 -8 3 -22 6 -30 4 -12 2 -15 -9 -10 -16 6
-29 39 -19 48 10 11 22 6 22 -8z m-2160 -72 c0 -8 -4 -12 -10 -9 -5 3 -10 13
-10 21 0 8 5 12 10 9 6 -3 10 -13 10 -21z m942 -31 c10 -9 23 -13 30 -11 23 9
58 -10 58 -32 0 -19 -6 -20 -142 -21 -167 -2 -185 -3 -217 -13 -30 -10 -25 14
7 30 12 6 30 18 40 27 50 46 182 57 224 20z m-1994 -19 c6 -2 12 -13 12 -24 0
-11 -6 -21 -12 -21 -50 -6 -91 -3 -100 8 -9 11 -15 7 -29 -17 -13 -21 -26 -30
-45 -30 -15 0 -44 -5 -65 -12 -49 -14 -59 -5 -28 25 49 48 74 58 132 53 48 -4
56 -2 60 15 5 19 21 20 75 3z m1958 -80 c17 -2 39 -13 49 -24 10 -11 24 -20
32 -20 7 0 13 -5 13 -10 0 -7 6 -7 19 0 13 7 22 7 26 0 6 -10 -2 -15 -40 -23
-12 -3 -8 -5 12 -6 17 0 35 -6 38 -12 9 -13 -223 -3 -261 12 -14 5 -40 9 -58
9 -47 0 -62 21 -33 46 43 38 94 45 203 28z m-2809 -46 c-3 -8 -6 -5 -6 6 -1
11 2 17 5 13 3 -3 4 -12 1 -19z m927 3 c9 -14 -17 -29 -39 -21 -19 7 -19 7 0
18 24 14 32 15 39 3z m-139 -41 c8 -14 -27 -21 -41 -9 -11 9 -13 9 -9 -2 8
-22 -50 -41 -83 -27 -24 10 -25 12 -8 16 11 2 26 10 33 18 14 14 100 17 108 4z
m3250 -20 c3 -5 1 -10 -4 -10 -6 0 -11 5 -11 10 0 6 2 10 4 10 3 0 8 -4 11
-10z m-145 -380 c0 -5 -8 -10 -17 -10 -15 0 -16 2 -3 10 19 12 20 12 20 0z
m-73 -442 c-3 -7 -5 -2 -5 12 0 14 2 19 5 13 2 -7 2 -19 0 -25z m-330 -304
c-3 -3 -12 -4 -19 -1 -8 3 -5 6 6 6 11 1 17 -2 13 -5z m350 -71 c4 -9 1 -19
-5 -21 -7 -2 -12 -17 -12 -32 0 -28 -13 -45 -35 -45 -5 0 -14 -9 -19 -21 -8
-18 -17 -21 -60 -19 -28 1 -54 3 -58 4 -11 1 -10 41 0 41 4 0 16 14 25 30 15
25 21 28 38 20 22 -13 52 0 84 36 24 28 33 30 42 7z m-1552 -324 c0 -35 3 -43
16 -41 9 1 20 -5 23 -14 4 -11 2 -15 -8 -11 -8 3 -16 -2 -19 -14 -6 -22 -27
-26 -27 -4 0 8 -4 15 -10 15 -5 0 -10 8 -10 19 0 10 -7 35 -15 55 -19 45 -13
57 23 47 24 -7 27 -12 27 -52z m-229 -61 c3 -4 10 -6 15 -2 6 3 22 -6 36 -21
19 -18 33 -25 49 -21 14 4 29 0 38 -10 14 -13 16 -14 16 0 0 24 16 27 54 9 30
-14 36 -22 36 -49 0 -18 5 -36 11 -40 8 -5 10 3 7 25 -3 19 1 36 9 42 10 9 18
0 38 -45 38 -86 37 -88 -47 -82 -108 7 -130 11 -167 30 -18 10 -43 15 -55 12
-11 -2 -40 -1 -63 3 -38 7 -46 5 -72 -18 -17 -15 -52 -33 -79 -39 -46 -12 -60
-11 -107 8 -60 24 -103 29 -170 20 -94 -12 -163 -26 -204 -39 -19 -6 -38 -8
-42 -5 -5 3 -9 2 -9 -3 0 -13 -59 -35 -80 -30 -11 3 -23 1 -26 -4 -3 -5 -10
-6 -16 -3 -6 4 -8 2 -4 -4 6 -11 -19 -42 -34 -42 -5 0 -14 9 -20 20 -13 23 11
107 29 102 6 -1 11 2 11 8 0 5 -7 10 -15 10 -15 0 -21 31 -9 43 13 13 34 -7
34 -34 0 -15 6 -32 14 -36 8 -4 16 -17 19 -28 2 -11 5 21 6 70 1 101 12 126
43 98 10 -9 18 -24 18 -34 0 -10 5 -21 10 -24 6 -3 10 1 10 9 0 12 11 16 48
16 45 0 48 2 47 25 l0 26 110 1 c106 1 188 -12 200 -32 13 -21 105 -11 151 16
24 14 44 29 44 33 0 21 104 39 116 19z m-1824 -158 c39 -4 46 -8 38 -20 -6 -9
-10 -10 -10 -3 0 8 -12 10 -36 6 -42 -7 -54 6 -53 52 l1 30 7 -30 c6 -27 11
-30 53 -35z m2244 -58 c-10 -10 -29 15 -21 28 6 9 10 8 17 -4 6 -10 7 -20 4
-24z m-741 -361 c8 -14 -10 -22 -30 -15 -13 5 -14 8 -3 15 17 11 26 11 33 0z
m1656 -358 c16 -10 29 -23 29 -31 0 -7 13 -21 30 -30 16 -9 38 -35 49 -57 17
-36 17 -47 7 -104 -7 -36 -16 -66 -21 -68 -15 -4 -66 99 -112 227 -32 90 -31
92 18 63z m-2187 -93 c17 -6 27 -6 32 2 11 17 173 2 196 -18 9 -9 34 -20 55
-24 78 -16 143 -35 143 -41 0 -4 55 -8 123 -9 67 -1 142 -4 167 -5 70 -3 100
5 100 26 0 17 10 19 103 21 86 1 239 1 285 -1 6 -1 12 -10 12 -21 0 -11 3 -19
8 -19 35 6 52 -4 63 -36 7 -19 16 -35 20 -35 13 0 -12 -61 -27 -67 -8 -3 -14
-11 -14 -19 0 -8 -10 -14 -25 -14 -14 0 -25 -4 -25 -9 0 -5 -8 -11 -17 -15
-10 -3 -25 -11 -34 -17 -13 -10 -22 -8 -47 9 -36 26 -50 28 -31 6 12 -14 9
-16 -21 -13 -30 3 -34 1 -32 -15 3 -16 -1 -18 -25 -12 -15 4 -73 10 -128 13
-55 3 -101 9 -103 14 -2 5 -10 9 -18 9 -8 0 -14 4 -14 9 0 4 -10 7 -22 5 -13
-2 -45 -6 -71 -9 -35 -5 -47 -10 -43 -20 3 -8 0 -16 -7 -19 -7 -2 -2 -5 11 -5
42 -2 22 -16 -23 -16 -25 0 -45 3 -45 7 0 8 15 12 35 9 6 -1 -1 8 -15 19 -19
15 -32 18 -55 13 -40 -10 -86 -8 -94 3 -3 5 -10 10 -16 11 -5 1 -18 5 -27 8
-11 4 -18 3 -18 -4 0 -6 -8 -11 -17 -11 -10 0 -33 -9 -51 -20 -39 -24 -67 -26
-59 -5 9 21 -14 31 -28 12 -9 -13 -18 -15 -44 -7 -41 11 -60 4 -67 -26 -4 -13
-16 -27 -28 -30 -27 -7 -91 20 -109 46 -12 18 -19 19 -62 11 -38 -7 -52 -6
-62 5 -8 8 -24 14 -35 14 -23 0 -58 26 -58 43 0 18 -31 46 -46 40 -8 -3 -14 0
-14 6 0 6 6 11 13 11 6 0 4 5 -6 11 -12 7 -16 17 -12 30 4 13 2 19 -9 19 -24
0 -29 20 -11 40 14 15 14 22 5 41 -11 20 -10 21 6 14 11 -4 32 -10 48 -13 24
-4 28 -2 23 12 -4 9 -2 16 3 16 6 0 10 -7 10 -15 0 -8 5 -15 10 -15 6 0 10 9
10 20 0 22 26 28 33 8 3 -10 7 -10 20 1 9 7 40 17 69 21 77 11 84 11 112 0z
m416 -320 c0 -5 -5 -10 -11 -10 -5 0 -7 5 -4 10 3 6 8 10 11 10 2 0 4 -4 4
-10z m-120 -40 c0 -5 -11 -10 -24 -10 -14 0 -28 5 -31 10 -4 6 7 10 24 10 17
0 31 -4 31 -10z m-572 -795 c-3 -3 -9 2 -12 12 -6 14 -5 15 5 6 7 -7 10 -15 7
-18z"/>
<path d="M4097 6023 c-12 -11 -8 -23 7 -23 8 0 16 -6 19 -12 2 -7 8 -10 12 -6
4 4 -2 16 -12 27 -11 12 -23 18 -26 14z"/>
<path d="M3970 5971 c0 -5 7 -14 15 -21 16 -14 18 -10 9 14 -6 17 -24 22 -24
7z"/>
<path d="M3806 5882 c-2 -4 -1 -14 5 -22 7 -12 9 -10 9 8 0 23 -5 28 -14 14z"/>
<path d="M3640 5749 c0 -5 5 -7 10 -4 6 3 10 8 10 11 0 2 -4 4 -10 4 -5 0 -10
-5 -10 -11z"/>
<path d="M4050 5710 c0 -16 5 -30 10 -30 6 0 10 3 10 8 0 4 3 17 6 30 5 16 2
22 -10 22 -11 0 -16 -9 -16 -30z"/>
<path d="M3857 5683 c-4 -3 -7 -20 -7 -37 l1 -31 14 25 c21 38 16 67 -8 43z"/>
<path d="M1680 5613 c0 -4 8 -17 16 -28 15 -20 16 -20 12 4 -3 22 -28 44 -28
24z"/>
<path d="M5737 3914 c-12 -12 3 -22 24 -17 16 4 17 8 7 14 -16 10 -23 11 -31
3z"/>
<path d="M3810 2390 c0 -5 4 -10 9 -10 6 0 13 5 16 10 3 6 -1 10 -9 10 -9 0
-16 -4 -16 -10z"/>
<path d="M3820 2300 c0 -5 5 -10 10 -10 6 0 10 5 10 10 0 6 -4 10 -10 10 -5 0
-10 -4 -10 -10z"/>
<path d="M4408 2283 c6 -2 18 -2 25 0 6 3 1 5 -13 5 -14 0 -19 -2 -12 -5z"/>
<path d="M4960 7680 c0 -5 10 -10 23 -10 18 0 19 2 7 10 -19 13 -30 13 -30 0z"/>
<path d="M1888 7063 c7 -3 16 -2 19 1 4 3 -2 6 -13 5 -11 0 -14 -3 -6 -6z"/>
<path d="M2060 7021 c0 -5 7 -12 16 -15 14 -5 15 -4 4 9 -14 17 -20 19 -20 6z"/>
<path d="M1980 6965 c13 -14 25 -23 28 -21 4 5 -35 46 -45 46 -3 0 4 -11 17
-25z"/>
<path d="M1566 6904 c-9 -24 -7 -52 5 -60 8 -4 9 1 4 15 -8 27 10 52 33 44 15
-4 15 -3 2 6 -21 15 -37 14 -44 -5z"/>
<path d="M6169 6763 c12 -24 31 -39 31 -25 0 5 -10 17 -21 28 -22 19 -22 19
-10 -3z"/>
<path d="M1390 6720 c-9 -6 -10 -10 -3 -10 6 0 15 5 18 10 8 12 4 12 -15 0z"/>
<path d="M6200 6713 c0 -6 6 -18 14 -25 8 -8 26 -37 40 -64 15 -27 24 -38 20
-24 -12 46 -73 140 -74 113z"/>
<path d="M6236 6565 c4 -8 8 -15 10 -15 2 0 4 7 4 15 0 8 -4 15 -10 15 -5 0
-7 -7 -4 -15z"/>
<path d="M6287 6505 c3 -27 10 -57 14 -65 5 -9 6 3 3 30 -10 65 -24 95 -17 35z"/>
<path d="M6336 6177 c3 -10 9 -15 12 -12 3 3 0 11 -7 18 -10 9 -11 8 -5 -6z"/>
<path d="M1360 5900 c0 -23 8 -52 17 -66 13 -21 15 -34 7 -62 -11 -46 -7 -92
9 -92 15 0 15 138 0 165 -6 10 -8 36 -6 57 5 31 2 38 -11 38 -12 0 -16 -10
-16 -40z"/>
<path d="M1321 5904 c0 -11 3 -14 6 -6 3 7 2 16 -1 19 -3 4 -6 -2 -5 -13z"/>
<path d="M1327 5723 c-10 -16 9 -67 42 -113 39 -54 40 -43 1 25 -16 28 -27 55
-24 58 3 3 2 13 -4 23 -5 9 -12 12 -15 7z"/>
<path d="M1410 5541 c24 -45 111 -82 147 -62 15 8 15 10 3 14 -8 3 -24 8 -35
13 -11 4 -23 6 -27 6 -5 -1 -8 3 -8 9 0 6 -6 9 -14 6 -7 -3 -28 3 -45 14 -31
19 -32 19 -21 0z m115 -59 c-3 -3 -11 0 -18 7 -9 10 -8 11 6 5 10 -3 15 -9 12
-12z"/>
<path d="M6216 5354 c-5 -14 -4 -15 9 -4 17 14 19 20 6 20 -5 0 -12 -7 -15
-16z"/>
<path d="M3660 5093 c-24 -12 -24 -13 -3 -13 12 0 25 5 28 11 11 16 2 17 -25
2z"/>
<path d="M2071 5014 c0 -11 3 -14 6 -6 3 7 2 16 -1 19 -3 4 -6 -2 -5 -13z"/>
<path d="M1960 3704 c0 -8 17 -22 38 -32 20 -9 41 -21 45 -27 5 -5 5 1 2 15
-9 33 -15 39 -53 49 -25 8 -32 7 -32 -5z"/>
<path d="M2069 3613 c-1 -5 -1 -11 0 -15 0 -5 -4 -8 -10 -8 -7 0 -8 -12 -4
-32 10 -45 21 -55 20 -18 0 17 -4 30 -8 30 -5 0 -5 6 0 13 9 14 13 37 7 37 -2
0 -5 -3 -5 -7z"/>
<path d="M2480 3491 c0 -33 15 -49 23 -27 7 18 -3 56 -14 56 -5 0 -9 -13 -9
-29z"/>
<path d="M7861 3424 c0 -11 3 -14 6 -6 3 7 2 16 -1 19 -3 4 -6 -2 -5 -13z"/>
<path d="M2480 3295 c0 -11 12 -15 43 -16 23 -1 32 -4 20 -6 -28 -5 -30 -23
-4 -23 31 0 37 21 11 42 -27 22 -70 24 -70 3z"/>
<path d="M7646 2183 c-6 -14 -5 -15 5 -6 7 7 10 15 7 18 -3 3 -9 -2 -12 -12z"/>
<path d="M7612 1920 c0 -14 2 -19 5 -12 2 6 2 18 0 25 -3 6 -5 1 -5 -13z"/>
<path d="M7592 1830 c0 -14 2 -19 5 -12 2 6 2 18 0 25 -3 6 -5 1 -5 -13z"/>
<path d="M7566 1704 c-4 -20 -5 -38 -3 -40 3 -3 8 11 11 32 4 20 5 38 3 40 -3
3 -8 -11 -11 -32z"/>
<path d="M7552 1570 c0 -14 2 -19 5 -12 2 6 2 18 0 25 -3 6 -5 1 -5 -13z"/>
<path d="M7502 1290 c0 -14 2 -19 5 -12 2 6 2 18 0 25 -3 6 -5 1 -5 -13z"/>
<path d="M3840 865 c0 -8 7 -15 16 -15 14 0 14 3 4 15 -7 8 -14 15 -16 15 -2
0 -4 -7 -4 -15z"/>
<path d="M3872 780 c-10 -16 -23 -20 -63 -20 -51 0 -51 0 -47 -30 3 -17 0 -30
-6 -30 -6 0 -5 -4 3 -9 8 -5 20 -7 26 -4 15 5 45 -23 45 -42 0 -8 -9 -13 -20
-12 -12 1 -20 8 -20 20 0 10 -4 15 -10 12 -5 -3 -10 -15 -10 -26 0 -10 -7 -19
-15 -19 -16 0 -31 43 -20 59 3 6 0 11 -8 11 -8 0 -17 9 -20 20 -4 16 -14 20
-51 20 -27 0 -46 -5 -46 -11 0 -6 6 -9 13 -6 8 3 13 -6 14 -26 1 -17 13 -41
25 -53 25 -24 162 -83 248 -107 30 -8 44 -16 32 -16 -14 -1 -26 -8 -29 -19 -6
-24 -58 -46 -91 -38 -15 3 -36 8 -47 10 -11 2 -32 8 -47 14 -35 14 -44 0 -22
-33 15 -23 15 -25 0 -31 -9 -3 -25 -4 -36 -1 -11 3 -23 1 -26 -4 -3 -5 -11 -9
-17 -9 -7 0 -4 7 6 14 25 19 22 23 -30 31 -33 5 -42 9 -32 16 11 7 11 9 1 9
-7 0 -11 4 -8 8 3 5 -7 7 -23 4 -19 -3 -35 -16 -54 -48 -15 -25 -27 -48 -27
-53 0 -4 -11 -18 -25 -31 -13 -12 -23 -26 -22 -30 3 -10 -43 -86 -70 -117 -13
-14 -23 -34 -23 -43 0 -10 -7 -23 -15 -30 -8 -7 -15 -19 -15 -26 0 -8 -7 -14
-17 -14 -9 0 -13 -3 -10 -6 8 -8 -24 -64 -36 -64 -4 0 -5 -4 -2 -10 4 -6 205
-10 571 -10 552 0 564 0 564 19 0 11 -5 23 -10 26 -6 4 -8 11 -5 16 6 8 -1 28
-46 127 -10 23 -19 49 -19 56 0 8 -18 46 -40 85 -22 39 -40 73 -40 77 0 9
-105 165 -134 199 -15 17 -26 33 -26 37 0 4 -19 26 -42 50 -24 24 -55 58 -71
76 -32 37 -38 39 -55 12z m-67 -350 c18 -7 19 -8 2 -15 -9 -4 -23 -2 -31 4 -7
6 -16 8 -19 4 -4 -3 -7 -1 -7 5 0 14 25 15 55 2z"/>
<path d="M3510 741 c0 -10 30 -24 37 -17 3 3 2 9 -2 15 -8 13 -35 15 -35 2z"/>
<path d="M3585 720 c-4 -6 -11 -8 -16 -5 -5 4 -9 2 -9 -4 0 -11 39 -25 47 -17
4 3 1 6 -5 6 -6 0 -9 7 -6 15 7 17 -1 20 -11 5z"/>
<path d="M3596 570 c-17 -17 -25 -34 -20 -41 4 -7 3 -10 -4 -5 -6 3 -13 2 -17
-3 -13 -22 60 -40 99 -25 13 5 11 11 -14 37 -32 33 -31 52 3 41 12 -3 20 -5
17 -2 -33 26 -35 26 -64 -2z"/>
<path d="M3841 506 c12 -10 60 -16 54 -6 -3 5 -18 10 -32 10 -15 0 -24 -2 -22
-4z"/>
</g>
</svg>
